<svg width="156" height="38" viewBox="0 0 156 38" fill="none" xmlns="http://www.w3.org/2000/svg">
<g clip-path="url(#clip0_579_368)">
<path d="M121.631 19.3129L119.936 23.5588H123.322L121.631 19.3129ZM121.631 19.3129L119.936 23.5588H123.322L121.631 19.3129ZM153.724 13.3892H104.873C103.615 13.3892 102.597 14.4499 102.597 15.7573V28.1416C102.597 29.4491 103.618 30.5064 104.873 30.5064H153.724C154.983 30.5064 156 29.4458 156 28.1416V15.7573C156 14.4499 154.983 13.3892 153.724 13.3892ZM114.107 27.101C113.379 27.6246 112.319 27.8848 110.93 27.8848H105.409V16.7946H110.625C111.925 16.7946 112.923 17.0515 113.619 17.5718C114.316 18.0888 114.663 18.7925 114.663 19.6798C114.663 20.2201 114.537 20.7004 114.29 21.1206C114.04 21.5442 113.693 21.8744 113.247 22.1179C113.857 22.318 114.335 22.6549 114.679 23.1252C115.022 23.5955 115.199 24.1725 115.199 24.8596C115.199 25.8302 114.836 26.5773 114.107 27.101ZM125.046 27.8848L124.102 25.5067H119.146L118.203 27.8848H115.67L120.427 16.7946H122.866L127.639 27.8848H125.049H125.046ZM138.539 27.8848H136.068V23.3387H131.221V27.8848H128.75V16.7946H131.221V21.1673H136.068V16.7946H138.539V27.8848ZM143.492 27.9615H141.101V19.3862H143.492V27.9615ZM143.37 17.7886C143.094 18.0588 142.738 18.1955 142.298 18.1955C141.858 18.1955 141.502 18.0621 141.223 17.7986C140.947 17.5318 140.809 17.2049 140.809 16.8113C140.809 16.4177 140.947 16.0909 141.223 15.8241C141.499 15.5572 141.858 15.4271 142.298 15.4271C142.738 15.4271 143.094 15.5539 143.37 15.8074C143.646 16.0642 143.784 16.3811 143.784 16.7646C143.784 17.1782 143.646 17.5218 143.37 17.7919V17.7886ZM153.596 26.3705C153.256 26.8942 152.745 27.3078 152.065 27.6146C151.384 27.9215 150.556 28.0749 149.581 28.0749C148.736 28.0749 147.921 27.9548 147.135 27.718C146.345 27.4812 145.713 27.171 145.235 26.7908L146.072 24.8563C146.531 25.2065 147.074 25.4833 147.703 25.6968C148.332 25.9102 148.961 26.0136 149.593 26.0136C150.296 26.0136 150.813 25.9036 151.15 25.6868C151.487 25.47 151.654 25.1831 151.654 24.8229C151.654 24.5594 151.555 24.3393 151.356 24.1658C151.157 23.9924 150.903 23.8523 150.595 23.7456C150.287 23.6422 149.866 23.5254 149.337 23.3954C148.525 23.1952 147.857 22.9951 147.34 22.795C146.82 22.5949 146.377 22.2713 146.005 21.8277C145.633 21.3841 145.45 20.7904 145.45 20.0533C145.45 19.4096 145.617 18.8259 145.954 18.3022C146.291 17.7786 146.795 17.365 147.472 17.0581C148.149 16.7513 148.974 16.6012 149.95 16.6012C150.63 16.6012 151.298 16.6846 151.946 16.8547C152.598 17.0248 153.166 17.2683 153.654 17.5851L152.89 19.533C151.904 18.9526 150.919 18.6625 149.93 18.6625C149.24 18.6625 148.73 18.7792 148.399 19.0127C148.069 19.2462 147.905 19.5497 147.905 19.9299C147.905 20.3101 148.095 20.5936 148.476 20.7771C148.858 20.9639 149.439 21.144 150.223 21.3241C151.035 21.5242 151.702 21.7277 152.219 21.9278C152.739 22.1279 153.182 22.4448 153.554 22.8784C153.927 23.312 154.109 23.899 154.109 24.6361C154.109 25.2699 153.939 25.8469 153.599 26.3705H153.596ZM119.939 23.5588H123.325L121.634 19.3129L119.939 23.5588ZM110.747 23.2119H107.864V25.9536H110.747C111.398 25.9536 111.886 25.8435 112.217 25.6201C112.547 25.3999 112.711 25.0564 112.711 24.5894C112.711 23.6689 112.056 23.2119 110.744 23.2119H110.747ZM111.706 21.0072C112.021 20.7838 112.178 20.4569 112.178 20.0266C112.178 19.5964 112.021 19.2695 111.706 19.0527C111.392 18.8359 110.93 18.7258 110.32 18.7258H107.864V21.3408H110.32C110.93 21.3408 111.392 21.2307 111.706 21.0072Z" fill="#E6C229"/>
<path d="M20.2948 6.39154C12.0363 6.39154 5.34088 13.3491 5.34088 21.9311C5.34088 30.513 12.0363 37.4706 20.2948 37.4706C28.5533 37.4706 35.2487 30.513 35.2487 21.9311C35.2487 13.3491 28.5533 6.39154 20.2948 6.39154ZM19.5437 7.98252V10.7876C17.0755 10.961 14.8351 12.005 13.1051 13.626L11.2018 11.6481C13.4229 9.52346 16.334 8.1693 19.5469 7.98585L19.5437 7.98252ZM10.3672 31.3469C8.37403 29.0788 7.09016 26.127 6.88153 22.8717H9.58408C9.78308 25.3565 10.7652 27.6112 12.2738 29.369L10.3672 31.3502V31.3469ZM20.9849 35.8797V33.0779C23.3696 32.9212 25.5426 31.9572 27.2534 30.443L29.1631 32.4275C26.9581 34.4421 24.1111 35.7162 20.9849 35.8797ZM20.2948 31.6771C15.1144 31.6771 10.9161 27.3144 10.9161 21.9311C10.9161 16.5478 15.1144 12.1851 20.2948 12.1851C25.4752 12.1851 29.6735 16.5478 29.6735 21.9311C29.6735 27.3144 25.4752 31.6771 20.2948 31.6771ZM28.457 14.6633L30.3667 12.6787C32.3535 15.0135 33.6021 18.042 33.7241 21.3707H31.0311C30.9092 18.8158 29.9623 16.4844 28.457 14.66V14.6633Z" fill="#E6C229"/>
<path d="M22.7856 21.5175H25.042V26.0169C24.461 26.4706 23.7902 26.8208 23.0295 27.0643C22.2656 27.3077 21.4985 27.4278 20.7282 27.4278C19.6208 27.4278 18.6226 27.181 17.74 26.6907C16.8541 26.2004 16.1608 25.5166 15.6601 24.6461C15.1594 23.7756 14.9058 22.7883 14.9058 21.691C14.9058 20.5936 15.1562 19.6063 15.6601 18.7358C16.164 17.8653 16.8605 17.1815 17.756 16.6912C18.6515 16.2009 19.6561 15.9541 20.7763 15.9541C21.7103 15.9541 22.5609 16.1175 23.3216 16.4444C24.0855 16.7713 24.7242 17.2482 25.2442 17.8719L23.6586 19.3929C22.8947 18.559 21.9767 18.1421 20.8983 18.1421C20.2178 18.1421 19.6112 18.2889 19.0848 18.5857C18.5552 18.8826 18.1444 19.2995 17.8491 19.8365C17.5538 20.3768 17.4062 20.9939 17.4062 21.691C17.4062 22.3881 17.5538 22.9918 17.8491 23.5288C18.1444 24.0691 18.552 24.486 19.0752 24.7895C19.5984 25.0897 20.1954 25.2398 20.8662 25.2398C21.5787 25.2398 22.2175 25.0797 22.7888 24.7628V21.5142L22.7856 21.5175Z" fill="#E6C229"/>
<path d="M6.72742 32.8445C6.80766 33.0779 6.84297 33.2847 6.83655 33.4648L6.2556 33.5849C6.2556 33.4148 6.22992 33.2347 6.17214 33.0446C6.11437 32.8545 6.03092 32.681 5.925 32.5276C5.80624 32.3542 5.6939 32.2474 5.58798 32.2007C5.48206 32.154 5.38898 32.164 5.30553 32.2241C5.24455 32.2674 5.21245 32.3308 5.20603 32.4075C5.19961 32.4842 5.21245 32.571 5.23813 32.6644C5.26701 32.7577 5.31195 32.8812 5.37293 33.0312C5.46602 33.2647 5.53021 33.4615 5.57514 33.6216C5.61687 33.7817 5.62008 33.9451 5.58156 34.1119C5.54305 34.2787 5.44034 34.4221 5.27343 34.5488C5.12579 34.6589 4.96531 34.7156 4.79198 34.7223C4.61545 34.729 4.43571 34.6756 4.25276 34.5589C4.0698 34.4454 3.89327 34.2687 3.72958 34.0285C3.61403 33.8618 3.52095 33.685 3.45034 33.4949C3.37972 33.3081 3.338 33.1246 3.32837 32.9545L3.89969 32.8111C3.935 33.1513 4.0345 33.4415 4.2014 33.685C4.31695 33.8551 4.4325 33.9585 4.53842 34.0018C4.64755 34.0419 4.74384 34.0319 4.8305 33.9685C4.91716 33.9051 4.94926 33.8084 4.92679 33.685C4.90432 33.5616 4.84655 33.3881 4.75668 33.1647C4.6636 32.9312 4.5994 32.7344 4.55447 32.5743C4.50953 32.4142 4.50953 32.2508 4.54484 32.0873C4.58014 31.9239 4.68285 31.7771 4.84976 31.6537C4.99419 31.547 5.15468 31.4903 5.33121 31.487C5.50774 31.4836 5.68748 31.537 5.87364 31.6537C6.05981 31.7705 6.23313 31.9472 6.39682 32.1841C6.53805 32.3909 6.65039 32.611 6.73063 32.8445H6.72742Z" fill="white"/>
<path d="M1.07528 28.0748C1.09454 27.8447 1.16194 27.6479 1.28391 27.4811C1.40588 27.3144 1.57599 27.191 1.79104 27.1109C2.00609 27.0309 2.21151 27.0142 2.4073 27.0642C2.60309 27.1109 2.77962 27.2176 2.93048 27.3844C3.08454 27.5512 3.20651 27.768 3.29959 28.0348L3.50822 28.6452L4.31064 28.345L4.55136 29.0454L1.63377 30.1294L1.1812 28.8186C1.08812 28.5518 1.05281 28.3016 1.06886 28.0715L1.07528 28.0748ZM2.46507 27.848C2.33989 27.7713 2.19546 27.7613 2.03497 27.8213C1.87128 27.8814 1.76536 27.9848 1.71401 28.1249C1.66265 28.2649 1.67549 28.4451 1.74931 28.6552L1.9451 29.2255L2.95615 28.8486L2.76036 28.2783C2.68654 28.0682 2.59025 27.9247 2.46507 27.848Z" fill="white"/>
<path d="M3.0298 23.4453C2.90141 23.7189 2.71846 23.9356 2.48094 24.0991C2.24342 24.2625 1.97381 24.3492 1.66889 24.3592C1.36397 24.3726 1.08794 24.3059 0.840794 24.1658C0.590439 24.0257 0.394649 23.8222 0.243794 23.5588C0.096149 23.2953 0.0126974 22.9984 -0.000141356 22.6649C-0.0129801 22.3313 0.0447941 22.0278 0.173181 21.7576C0.301568 21.4841 0.48452 21.2673 0.722036 21.1039C0.959553 20.9405 1.22917 20.8538 1.53409 20.8404C1.839 20.8271 2.11504 20.8938 2.36218 21.0372C2.61254 21.1806 2.81154 21.3807 2.95918 21.6442C3.10683 21.9044 3.18707 22.2013 3.19991 22.5348C3.21275 22.8683 3.15497 23.1718 3.02659 23.4453H3.0298ZM2.44563 22.0512C2.35576 21.9011 2.23379 21.7877 2.07973 21.7043C1.92567 21.6242 1.75234 21.5875 1.56297 21.5942C1.37039 21.6009 1.20349 21.6542 1.05584 21.7476C0.908198 21.841 0.795859 21.9678 0.718827 22.1212C0.641794 22.2746 0.606488 22.4514 0.612907 22.6415C0.619327 22.8316 0.667472 23.0017 0.757343 23.1518C0.847214 23.3019 0.969182 23.4153 1.12325 23.4987C1.27731 23.5788 1.45063 23.6155 1.64 23.6088C1.83259 23.6021 1.99949 23.5487 2.14713 23.4554C2.29478 23.362 2.40712 23.2352 2.48415 23.0818C2.56118 22.9284 2.59649 22.7516 2.59007 22.5615C2.58365 22.3714 2.5355 22.2013 2.44563 22.0512Z" fill="white"/>
<path d="M3.90624 16.4577L2.91766 16.8246L2.90803 16.8613L2.74755 17.4884L3.58206 17.7218L3.3959 18.4423L0.40448 17.6084L0.751125 16.2643C0.821738 15.9874 0.927657 15.764 1.06888 15.5839C1.21011 15.4071 1.3738 15.2837 1.56638 15.2203C1.75896 15.1569 1.96438 15.1536 2.18585 15.217C2.40732 15.2803 2.58385 15.3871 2.71866 15.5438C2.85025 15.7006 2.93371 15.8907 2.9658 16.1209L4.10845 15.6906L3.90945 16.4644L3.90624 16.4577ZM1.56638 16.0008C1.44763 16.0875 1.36096 16.2409 1.30319 16.4577L1.15233 17.0448L2.19548 17.3349L2.34634 16.7479C2.4009 16.5311 2.39769 16.3543 2.33671 16.2176C2.27572 16.0808 2.16017 15.9874 1.99648 15.9408C1.82958 15.8941 1.68514 15.9141 1.56638 16.0008Z" fill="white"/>
<path d="M11.6929 6.17137C11.404 6.17137 11.1376 6.09132 10.8937 5.9379C10.6498 5.78447 10.4572 5.56767 10.316 5.28416C10.1715 5.00065 10.1105 4.71381 10.1266 4.4203C10.1426 4.12678 10.2325 3.85328 10.393 3.60313C10.5535 3.35297 10.7782 3.15285 11.0574 2.99609C11.2949 2.86601 11.5324 2.79263 11.7667 2.77262C12.001 2.75594 12.2257 2.78929 12.4408 2.88269L12.2321 3.4964C11.9336 3.37632 11.648 3.38966 11.3751 3.53976C11.205 3.63315 11.0734 3.75322 10.9804 3.90331C10.8873 4.0534 10.8359 4.21684 10.8327 4.39695C10.8295 4.57706 10.8712 4.75383 10.9611 4.93061C11.051 5.10738 11.1665 5.24414 11.311 5.34086C11.4554 5.43759 11.6127 5.49095 11.786 5.49429C11.9593 5.49763 12.1294 5.45426 12.2995 5.36087C12.5724 5.21078 12.7457 4.97397 12.8163 4.6471L13.4197 4.81387C13.3716 5.05068 13.2753 5.26415 13.1276 5.4576C12.98 5.65105 12.7842 5.81115 12.5467 5.94123C12.2674 6.09466 11.9818 6.16804 11.6929 6.16804V6.17137Z" fill="white"/>
<path d="M17.5698 3.47644L16.1575 3.76329L16.0163 4.49374L15.2941 4.64049L16.0548 1.20838L16.7481 1.0683L18.7028 3.95007L17.9646 4.10016L17.5666 3.47978L17.5698 3.47644ZM17.2424 2.96613L16.5331 1.85545L16.2795 3.16292L17.2424 2.96613Z" fill="white"/>
<path d="M21.0844 3.91332C20.8629 3.82326 20.6864 3.71987 20.558 3.59646L20.8469 3.05946C20.972 3.17286 21.1197 3.26626 21.2994 3.34297C21.476 3.41968 21.6557 3.46638 21.8386 3.48306C22.0409 3.49973 22.1949 3.48306 22.2944 3.42969C22.3939 3.37632 22.4517 3.29627 22.4613 3.19288C22.4677 3.11616 22.4453 3.04946 22.3907 2.99609C22.3361 2.93939 22.2687 2.89269 22.1789 2.856C22.0922 2.81598 21.9734 2.77262 21.8226 2.72259C21.5915 2.64254 21.4053 2.56916 21.2609 2.49578C21.1165 2.42574 20.9945 2.31901 20.8982 2.18226C20.8019 2.04551 20.7634 1.86873 20.7794 1.65527C20.7955 1.46848 20.8565 1.30505 20.9656 1.16163C21.0747 1.01821 21.232 0.911476 21.4342 0.841433C21.6364 0.77139 21.8804 0.748042 22.1628 0.77139C22.3586 0.788067 22.5512 0.831427 22.7341 0.898134C22.9171 0.964842 23.0776 1.04823 23.2092 1.15162L22.9428 1.69529C22.6732 1.50184 22.3939 1.39177 22.1083 1.36509C21.9093 1.34841 21.7584 1.36509 21.6557 1.42512C21.553 1.48516 21.4984 1.56855 21.4888 1.67861C21.4792 1.78868 21.5273 1.8754 21.6332 1.93877C21.7391 2.00215 21.9028 2.06885 22.1243 2.14223C22.3554 2.22228 22.5416 2.29566 22.686 2.36904C22.8304 2.43908 22.9524 2.54248 23.0487 2.67923C23.145 2.81264 23.1835 2.98942 23.1675 3.20288C23.1514 3.38633 23.0904 3.54976 22.9781 3.68985C22.8657 3.83327 22.7085 3.94 22.5063 4.01005C22.3008 4.08009 22.0601 4.10344 21.7777 4.07675C21.5337 4.05341 21.2994 4.00004 21.0779 3.90998L21.0844 3.91332Z" fill="white"/>
<path d="M26.2552 1.65863L26.9357 1.88877L25.976 4.94732L25.2955 4.71718L26.2552 1.65863Z" fill="white"/>
<path d="M32.3472 4.78717L30.691 7.50551L30.1935 7.17864L29.895 4.67043L28.8904 6.32145L28.2934 5.92787L29.9496 3.20953L30.4503 3.53974L30.7456 6.04461L31.7502 4.39359L32.3472 4.78717Z" fill="white"/>
<path d="M33.0694 9.58344C33.0116 9.28659 33.0276 8.99641 33.1207 8.71958C33.2138 8.44274 33.3775 8.19926 33.6118 7.99913C33.8461 7.79568 34.1029 7.67227 34.3821 7.62557C34.6614 7.57888 34.9374 7.61223 35.2102 7.72897C35.483 7.84237 35.7206 8.02582 35.926 8.28264C36.1314 8.53947 36.263 8.8163 36.3208 9.11315C36.3785 9.41 36.3625 9.69684 36.2694 9.97702C36.1763 10.2572 36.0159 10.4973 35.7815 10.7008C35.5472 10.9043 35.2905 11.0277 35.0112 11.071C34.732 11.1144 34.4527 11.081 34.1831 10.9676C33.9135 10.8542 33.6728 10.6708 33.4674 10.414C33.2619 10.1571 33.1303 9.88029 33.0694 9.58344ZM34.35 10.3172C34.5105 10.3773 34.6742 10.3939 34.8411 10.3606C35.008 10.3272 35.1685 10.2472 35.3161 10.1204C35.4638 9.99369 35.5665 9.84694 35.6307 9.67683C35.6917 9.51006 35.7077 9.33996 35.6788 9.16652C35.6499 8.99308 35.5761 8.83298 35.4574 8.68622C35.3386 8.53947 35.2006 8.43607 35.0433 8.37603C34.886 8.316 34.7191 8.29932 34.5522 8.33267C34.3821 8.36603 34.2248 8.44608 34.0772 8.57282C33.9296 8.69956 33.8269 8.84632 33.7627 9.01643C33.7017 9.1832 33.6856 9.3533 33.7145 9.52674C33.7434 9.70018 33.8172 9.86028 33.936 10.007C34.0547 10.1538 34.1928 10.2572 34.35 10.3172Z" fill="white"/>
<path d="M5.11308 9.59676C5.38075 9.59676 5.59774 9.37127 5.59774 9.09312C5.59774 8.81497 5.38075 8.58948 5.11308 8.58948C4.84541 8.58948 4.62842 8.81497 4.62842 9.09312C4.62842 9.37127 4.84541 9.59676 5.11308 9.59676Z" fill="white"/>
<path d="M42.923 19.2328C43.4526 18.9359 44.056 18.7891 44.7365 18.7891C45.8149 18.7891 46.7329 19.2061 47.4968 20.0399L49.0824 18.519C48.5624 17.8953 47.9237 17.4216 47.1598 17.0914C46.3959 16.7646 45.5485 16.6011 44.6145 16.6011C43.4976 16.6011 42.4897 16.848 41.5942 17.3383C40.6987 17.8286 40.0022 18.5123 39.4983 19.3828C38.9944 20.2534 38.744 21.2407 38.744 22.338C38.744 23.4353 38.9944 24.4226 39.4983 25.2931C40.0022 26.1637 40.6955 26.8474 41.5782 27.3377C42.464 27.828 43.459 28.0748 44.5664 28.0748C45.3399 28.0748 46.107 27.9548 46.8677 27.7113C47.6316 27.4678 48.3024 27.1209 48.8802 26.664V22.1646H46.6238V25.4132C46.0557 25.7301 45.4137 25.8902 44.7012 25.8902C44.0304 25.8902 43.4334 25.7401 42.9102 25.4399C42.387 25.1397 41.9762 24.7195 41.6841 24.1791C41.3888 23.6388 41.2412 23.0284 41.2412 22.3413C41.2412 21.6542 41.3888 21.0272 41.6841 20.4869C41.9794 19.9465 42.3902 19.5296 42.9198 19.2361L42.923 19.2328Z" fill="#E6C229"/>
<path d="M56.9654 16.7945H54.526L53.0142 20.3167C52.9597 20.4267 52.9115 20.5368 52.8698 20.6535L49.7661 27.888H52.2953L53.2389 25.5098H58.1947L59.1383 27.888H61.7285L56.9557 16.7978L56.9654 16.7945ZM56.8306 24.4425H54.6929V24.4258C55.1872 24.2991 55.7553 23.4352 55.7553 23.4352C55.7553 23.4352 56.3331 24.3191 56.8306 24.4292V24.4392V24.4425ZM57.1355 23.4319C57.1355 23.4319 56.1822 23.5153 55.7521 22.6581C55.322 23.5153 54.3687 23.4319 54.3687 23.4319C53.1587 23.4319 52.8698 21.7409 53.7075 21.0404C54.5453 20.34 55.7521 18.7457 55.7521 18.7457C55.7521 18.7457 56.9589 20.34 57.7967 21.0404C58.6344 21.7409 58.3423 23.4319 57.1355 23.4319Z" fill="#E6C229"/>
<path d="M65.3202 16.7913H62.852V27.8847H70.674V25.7935H65.3202V16.7913Z" fill="#E6C229"/>
<path d="M74.5287 16.7913H72.0605V27.8847H79.8825V25.7935H74.5287V16.7913Z" fill="#E6C229"/>
<path d="M83.7244 23.2586H88.6802V21.2607H83.7244V18.8525H89.335V16.7913H81.269V27.8847H89.534V25.8235H83.7244V23.2586Z" fill="#E6C229"/>
<path d="M98.5597 24.3191C99.2594 24.0023 99.8018 23.5453 100.184 22.9483C100.566 22.3512 100.755 21.6408 100.755 20.817C100.755 19.9931 100.566 19.2794 100.19 18.679C99.8147 18.0786 99.2786 17.6117 98.5821 17.2848C97.8856 16.9579 97.0672 16.7945 96.1203 16.7945H91.5016V27.8846H93.973V24.7927H96.2455L98.3029 27.8846H100.957L98.5629 24.3191H98.5597ZM96.9195 23.9322H94.7819V23.9155C95.2762 23.7888 95.8443 22.9249 95.8443 22.9249C95.8443 22.9249 96.422 23.8088 96.9195 23.9222V23.9322ZM97.2244 22.9216C97.2244 22.9216 96.2712 23.0083 95.8411 22.1478C95.411 23.005 94.4577 22.9216 94.4577 22.9216C93.2477 22.9216 92.9588 21.2306 93.7965 20.5301C94.6342 19.8297 95.8411 18.2354 95.8411 18.2354C95.8411 18.2354 97.0479 19.8297 97.8856 20.5301C98.7234 21.2306 98.4313 22.9216 97.2244 22.9216Z" fill="#E6C229"/>
</g>
<defs>
<clipPath id="clip0_579_368">
<rect width="156" height="36.7059" fill="white" transform="translate(0 0.764709)"/>
</clipPath>
</defs>
</svg>
