<?xml version="1.0" encoding="utf-8"?>
<!-- Generator: Adobe Illustrator 28.2.0, SVG Export Plug-In . SVG Version: 6.00 Build 0)  -->
<svg version="1.1" xmlns="http://www.w3.org/2000/svg" xmlns:xlink="http://www.w3.org/1999/xlink" x="0px" y="0px"
	 viewBox="0 0 1920 640" style="enable-background:new 0 0 1920 640;" xml:space="preserve">
<style type="text/css">
	.st0{fill:#B52625;}
	.st1{fill:#B62525;}
	.st2{fill:#FDFEFF;}
	.st3{opacity:0.7;fill:#FDFEFF;}
</style>
<g id="r">
</g>
<g id="e">
</g>
<g id="s">
</g>
<g id="t">
</g>
<g id="b">
</g>
<g id="e_1_">
</g>
<g id="t_1_">
	<g>
		<path class="st0" d="M103.1,423.19c1.44,0.17,1.15-1.01,1.3-1.74c8.09-38.11,16.17-76.23,24.24-114.35
			c2.03-9.58,3.95-19.19,6.09-28.75c3.63-16.18,17.33-27.2,33.94-27.23c34.48-0.07,68.95,0.01,103.42-0.08
			c2.79-0.01,3.23,0.7,2.57,3.31c-1.45,5.8-2.84,11.65-3.71,17.56c-0.49,3.33-1.9,3.89-4.91,3.87c-19.53-0.13-39.06,0-58.59-0.14
			c-2.89-0.02-3.84,0.88-4.43,3.67c-9.47,44.72-19.06,89.41-28.63,134.11c-1.07,5-2.15,10-3.22,15c-21.51,0-43.02-0.08-64.53,0.09
			c-3.12,0.02-4.2-0.69-3.58-3.71C103.19,424.29,103.1,423.73,103.1,423.19"/>
		<path class="st1" d="M268.08,428.51c0.29-0.96-0.46-1.08-1.06-1.23c-13.7-3.44-20.68-15.43-17.54-30.87
			c6.96-34.23,14.39-68.37,21.63-102.55c1.15-5.43,2.19-10.88,3.48-16.28c3.66-15.34,17.12-26.3,32.92-26.35
			c39.49-0.13,78.98-0.11,118.47,0c15.97,0.04,24.63,11.27,21.28,27.49c-6.7,32.4-13.59,64.76-20.28,97.16
			c-0.59,2.84-1.55,3.8-4.61,3.79c-32.4-0.14-64.8-0.04-97.2-0.16c-2.97-0.01-4.2,0.87-4.74,3.78c-1.13,6.09-2.52,12.14-3.99,18.17
			c-0.53,2.16-0.16,2.86,2.17,2.78c4.47-0.16,8.94-0.05,13.42-0.05c28.36,0,56.73,0.04,85.09-0.06c2.73-0.01,3.59,0.42,2.88,3.33
			c-1.7,6.98-3.1,14.03-4.62,21.05H268.08z M361.74,275.8c-5.12,0-10.25,0.13-15.36-0.06c-2.35-0.09-3.24,0.77-3.67,2.97
			c-1.35,6.82-2.87,13.62-4.33,20.42c-3.73,17.33-7.43,34.65-11.23,51.96c-0.59,2.68-0.06,3.61,2.89,3.56
			c10.24-0.17,20.49-0.1,30.73-0.04c1.79,0.01,2.61-0.37,3.03-2.37c5.21-24.68,10.52-49.34,15.89-73.98
			c0.43-1.97,0.02-2.52-1.93-2.49C372.42,275.85,367.08,275.8,361.74,275.8"/>
		<path class="st1" d="M448.77,428.52c0.3-1.42-0.92-1.17-1.61-1.42c-13.12-4.69-19.5-15.25-17.13-28.89
			c1.12-6.42,2.81-12.75,4.11-19.15c0.35-1.71,1-2.31,2.77-2.3c21.05,0.05,42.11,0.07,63.16-0.01c2.46-0.01,2.69,0.94,2.23,2.92
			c-1.64,7.1-3.15,14.24-4.85,21.33c-0.57,2.38-0.19,3.3,2.52,3.26c10.36-0.13,20.73-0.12,31.09,0c2.1,0.02,2.77-0.76,3.17-2.67
			c3.27-15.55,6.61-31.08,10.01-46.61c0.54-2.49-0.17-3.17-2.72-3.16c-22.47,0.09-44.94,0.08-67.42,0.03
			c-6.65-0.02-13.06-1.25-18.54-5.32c-8.62-6.41-10.81-15.5-9.08-25.38c2.58-14.68,5.72-29.27,9.04-43.8
			c3.44-15.07,17.27-26.06,32.81-26.11c39.6-0.13,79.2-0.14,118.8,0.01c16.15,0.06,24.24,11.24,20.88,28.34
			c-1.36,6.94-3.03,13.82-4.41,20.76c-0.4,2.01-1.29,2.61-3.29,2.6c-20.73-0.07-41.45-0.07-62.18,0c-2.43,0.01-3.01-0.68-2.43-3.04
			c1.7-6.98,3.18-14.01,4.83-21c0.51-2.16,0.24-3.17-2.37-3.14c-10.47,0.12-20.94,0.1-31.42,0.01c-1.94-0.02-2.58,0.69-2.97,2.51
			c-3.29,15.43-6.65,30.85-10.09,46.26c-0.62,2.79,0.64,3.03,2.9,3.03c24.22-0.05,48.44-0.04,72.65-0.02c2.83,0,5.65-0.02,8.45,0.68
			c10.23,2.54,16.68,11.96,15.07,22.42c-1.87,12.16-4.81,24.12-7.23,36.17c-0.77,3.84-1.43,7.73-2.58,11.46
			c-4.48,14.51-14.12,23.96-28.55,28.63c-0.9,0.29-2.6-0.28-2.55,1.63H448.77z"/>
		<path class="st1" d="M659.59,428.47c0.41-0.94-0.29-1.12-0.92-1.28c-13.27-3.35-20.55-15.75-17.18-31.72
			c8.14-38.52,16.33-77.03,24.5-115.54c0.89-4.18,0.92-4.18-3.38-4.18c-8.61,0-17.22-0.06-25.84,0.04
			c-2.42,0.03-2.95-0.57-2.36-3.02c1.43-5.92,2.61-11.9,3.67-17.9c0.5-2.82,1.57-3.92,4.65-3.83c8.82,0.25,17.66,0.06,26.49,0.11
			c1.66,0.01,2.9-0.1,3.31-2.15c2.84-14.17,5.75-28.33,8.64-42.49h68.09c-0.15,1.18-0.23,2.38-0.47,3.54
			c-2.64,12.57-5.27,25.14-8,37.69c-0.54,2.51-0.36,3.56,2.74,3.48c8.94-0.24,17.89-0.02,26.83-0.13c2.39-0.03,3.25,0.28,2.57,3.01
			c-1.54,6.23-2.81,12.53-3.97,18.85c-0.4,2.17-1.26,2.87-3.43,2.84c-9.05-0.1-18.11,0.06-27.16-0.11c-2.57-0.05-3.6,0.75-4.11,3.24
			c-8.56,40.79-17.17,81.58-25.88,122.34c-0.56,2.61,0.2,2.95,2.45,2.92c8.95-0.08,17.9,0.07,26.84-0.09
			c3.02-0.06,3.36,0.91,2.75,3.6c-1.57,6.89-2.85,13.85-4.25,20.78H659.59z"/>
		<path class="st2" d="M787.91,206.53h68.09c0.27,1.31,0,2.57-0.27,3.85c-2.53,11.92-5.07,23.84-7.56,35.77
			c-1.05,5.02-1.01,5.03,4.2,5.03c23.88,0,47.77-0.03,71.65,0.02c11.5,0.02,19.19,5.18,21.96,14.45c1.35,4.53,1.03,9.05,0.07,13.58
			c-7.78,36.84-15.73,73.64-23.32,110.51c-3.88,18.83-13.42,32.33-32.71,37.55c-0.52,0.14-1.47,0.23-0.63,1.18H741.42
			c-0.13-3.1,0.94-6,1.56-8.95C757.92,348.52,772.92,277.52,787.91,206.53 M814.78,404.12c11.88,0,23.53-0.03,35.18,0.03
			c1.7,0.01,1.89-0.97,2.15-2.23c0.75-3.73,1.59-7.45,2.38-11.18c7.89-37.28,15.77-74.55,23.71-111.82
			c0.51-2.38,0.35-3.38-2.56-3.33c-10.25,0.18-20.51,0.12-30.76,0.03c-2.03-0.02-2.97,0.37-3.45,2.67
			c-5.73,27.49-11.63,54.95-17.46,82.43C820.9,375.08,817.88,389.45,814.78,404.12"/>
		<path class="st2" d="M1092.34,428.43H944.38c0.12-0.16,0.39-0.37,0.35-0.46c-0.42-1.01-1.46-0.77-2.25-1.02
			c-7.64-2.46-13.04-7.31-15.72-14.94c-1.97-5.63-1.74-11.4-0.53-17.12c8.15-38.55,16.33-77.1,24.57-115.63
			c3.71-17.33,17.05-28.09,34.75-28.11c38.61-0.03,77.24-0.01,115.85-0.02c2.63,0,5.25,0.19,7.79,0.79
			c11.4,2.68,17.43,12.9,14.83,25.55c-6.83,33.16-13.83,66.28-20.67,99.44c-0.49,2.38-1.59,2.74-3.75,2.74
			c-32.84-0.07-65.67-0.03-98.51-0.09c-2.32,0-3.42,0.44-3.88,3.01c-1.07,5.99-2.35,11.98-3.99,17.84c-0.9,3.21-0.16,3.76,2.96,3.75
			c32.4-0.1,64.8-0.04,97.2-0.11c2.82-0.01,4.02,0.14,3.14,3.62C1094.81,414.5,1093.7,421.5,1092.34,428.43 M1021.44,354.52
			c5.12,0,10.26-0.16,15.38,0.07c2.48,0.11,3.32-0.79,3.78-3.05c2-9.81,4.14-19.59,6.24-29.38c3.14-14.58,6.27-29.16,9.45-43.72
			c0.42-1.91,0.4-2.9-2.13-2.87c-10.58,0.14-21.16,0.11-31.74,0.02c-1.92-0.01-2.52,0.62-2.92,2.49
			c-5.24,24.7-10.58,49.38-15.95,74.05c-0.41,1.85-0.2,2.49,1.87,2.44C1010.75,354.44,1016.1,354.52,1021.44,354.52"/>
		<path class="st2" d="M1155.19,428.47c0.64-1.05-0.39-1.04-0.84-1.14c-12.72-2.74-21.42-14.52-17.76-31.87
			c8.21-38.99,16.42-77.99,24.75-116.95c0.54-2.53,0-2.91-2.33-2.88c-8.95,0.11-17.9-0.02-26.84,0.08c-2.4,0.03-3.48-0.1-2.7-3.11
			c1.61-6.21,2.84-12.53,3.98-18.85c0.37-2.07,1.13-2.63,3.17-2.61c9.27,0.11,18.55-0.02,27.82,0.1c2.05,0.03,2.8-0.6,3.2-2.59
			c2.77-13.66,5.66-27.29,8.5-40.93c0.08-0.38,0-0.79,0-1.18h68.09c-0.09,4.38-1.46,8.53-2.32,12.76
			c-2.13,10.53-4.39,21.03-6.64,31.76h33.18v5.24c-1.58-0.26-1.13,1.08-1.28,1.78c-1.12,4.99-2.3,9.97-3.16,15.01
			c-0.36,2.08-1.13,2.66-3.16,2.63c-9.05-0.1-18.11,0.08-27.15-0.12c-2.85-0.07-3.84,0.83-4.42,3.57
			c-8.53,40.79-17.16,81.56-25.86,122.32c-0.49,2.3-0.07,2.71,2.14,2.69c9.05-0.1,18.11,0.14,27.15-0.14
			c3.4-0.11,3.35,1.13,2.77,3.68c-1.55,6.9-2.91,13.84-4.35,20.76H1155.19z"/>
	</g>
	<g>
		<path class="st1" d="M1394.74,250.93l-53.02,25.06l7.07-40.17l62.66-31.49h35.02l-39.52,224.93h-43.7L1394.74,250.93z"/>
		<path class="st1" d="M1454.18,389.42l26.35-150.38l40.81-34.7h99.29l33.42,39.85l-26.67,151.03l-39.52,34.06h-100.58
			L1454.18,389.42z M1569.86,392l16.71-14.14l21.21-122.11l-11.57-14.14h-58.16l-16.71,14.14l-21.53,122.11l11.57,14.14H1569.86z"/>
	</g>
	<g>
		<path class="st2" d="M1588.5,462.63c-8.86,0-15.95-1.92-21.28-5.75c-5.32-3.83-7.99-9.58-7.99-17.24
			c0-8.14,3.41-15.14,10.23-21.01c0.96-0.72,1.62-1.08,1.98-1.08c0.72,0,1.08,0.36,1.08,1.08c0,1.32-0.66,2.51-1.98,3.59
			c-4.55,3.95-6.82,8.8-6.82,14.54c0,6.22,2.31,11.25,6.91,15.08c4.61,3.83,10.2,5.75,16.79,5.75c12.81,0,27.05-6.94,42.73-20.83
			c17.35-15.44,35.19-38.66,53.5-69.66c9.34-15.8,18.04-29.65,26.12-41.56c8.08-11.91,15.53-21.87,22.35-29.89
			c6.34-7.42,12.9-13.7,19.66-18.85c6.76-5.15,12.72-8.32,17.86-9.52c0.24-0.12,0.54-0.18,0.9-0.18s0.66,0,0.9,0
			c2.87,0,4.31,0.96,4.31,2.87c0,1.92-1.8,3.65-5.39,5.21c-8.98,3.71-20.14,13.8-33.48,30.25c-13.35,16.46-29.47,39.47-48.39,69.03
			c-10.53,16.4-20.47,30.43-29.8,42.1s-18.2,20.97-26.57,27.92C1617.52,456.59,1602.98,462.63,1588.5,462.63z M1652.23,398.36
			c-0.84,0-1.68-0.18-2.51-0.54c-0.84-0.36-1.2-0.84-1.08-1.44c1.55-6.94,2.93-13.85,4.13-20.74c1.2-6.88,1.79-13.79,1.79-20.74
			c0-16.28-2.4-30.52-7.18-42.73c-6.82-17.35-17.06-26.03-30.7-26.03c-4.91,0-9.43,1.5-13.56,4.49c-4.13,2.99-7.45,6.91-9.96,11.76
			s-3.77,9.96-3.77,15.35c0,4.55,0.87,8.89,2.6,13.02c1.73,4.13,4.22,8.05,7.45,11.76c6.58,7.3,13.7,10.95,21.36,10.95
			c1.08,0,2.48-0.24,4.22-0.72c1.73-0.48,2.96-0.72,3.68-0.72c0.96,0,1.44,0.42,1.44,1.26c0,1.32-1.02,2.33-3.05,3.05
			c-2.99,1.08-6.28,1.62-9.88,1.62c-8.98,0-17-3.35-24.06-10.05c-7.66-7.3-11.49-16.34-11.49-27.11c0-4.31,0.78-8.74,2.33-13.29
			c1.55-4.55,3.8-8.8,6.73-12.75c2.93-3.95,6.52-7.15,10.77-9.6c4.25-2.45,9.12-3.68,14.63-3.68c16.04,0,28.37,9.82,36.99,29.44
			c6.58,14.72,9.87,31.18,9.87,49.37c0,5.75-0.3,11.43-0.9,17.06c-0.6,5.63-1.5,11.19-2.69,16.7c-0.24,1.2-1.14,2.21-2.69,3.05
			C1655.16,397.94,1653.67,398.36,1652.23,398.36z"/>
		<path class="st2" d="M1726.02,394.77c-6.94-1.56-10.41-4.31-10.41-8.26c0-1.91,2.33-8.68,7-20.29c1.32-2.27,3.08-5.59,5.3-9.96
			c2.21-4.37,5-9.72,8.35-16.07c0.6-0.96,1.91-1.44,3.95-1.44c1.79,0,3.56,0.27,5.3,0.81c1.73,0.54,2.42,1.05,2.07,1.53
			c-15.8,22.38-23.7,37.88-23.7,46.5c0,2.51,0.84,3.77,2.51,3.77c3.23,0,8.32-2.27,15.26-6.82c8.26-5.62,15.2-12.39,20.83-20.29
			c1.2-1.91,2.39-2.87,3.59-2.87c0.36,0,0.54,0.18,0.54,0.54c0,0.6-0.54,1.74-1.62,3.41c-5.27,8.26-12.57,15.56-21.9,21.9
			C1734.7,392.97,1729.01,395.49,1726.02,394.77z"/>
		<path class="st2" d="M1771.09,396.38c-8.5-1.79-12.75-5.75-12.75-11.85c0-3.59,1.14-8.8,3.41-15.62
			c1.67-5.15,3.98-11.04,6.91-17.68c2.93-6.64,6.61-14.03,11.04-22.17c10.65-19.99,18.73-30.4,24.24-31.24
			c0.48-0.12,1.26-0.18,2.33-0.18c5.86,0,8.8,2.75,8.8,8.26c0,7.54-6.35,18.25-19.03,32.14c-7.06,7.9-14.84,14.9-23.34,21.01
			c-5.03,11.97-7.54,20.77-7.54,26.39c0,3.71,1.14,5.92,3.41,6.64c1.79,0.48,5.98-1.67,12.57-6.46c7.54-5.5,14-12.21,19.39-20.11
			c0.84-1.2,1.62-1.8,2.33-1.8c0.48,0,0.72,0.24,0.72,0.72c0,0.48-0.3,1.2-0.9,2.16c-4.55,7.3-10.48,14.25-17.77,20.83
			C1777.85,393.87,1773.24,396.86,1771.09,396.38z M1774.68,354.19c4.31-3.23,7.9-6.46,10.77-9.69l10.59-12.57
			c9.81-11.61,14.72-20.17,14.72-25.67c0-1.08-0.6-1.62-1.8-1.62c-2.04,0-5.27,2.93-9.7,8.8c-1.32,1.92-2.69,3.77-4.13,5.57
			s-2.87,3.65-4.31,5.57c-1.8,2.63-3.44,5.21-4.94,7.72c-1.5,2.51-2.9,5.09-4.22,7.72c-0.36,0.48-1.11,1.92-2.25,4.31
			C1778.29,346.71,1776.71,350,1774.68,354.19z"/>
	</g>
	<circle class="st2" cx="1600.33" cy="394.12" r="10.69"/>
	
		<rect x="1292.75" y="177.78" transform="matrix(0.9805 0.1963 -0.1963 0.9805 88.4222 -247.6015)" class="st3" width="1.03" height="288.95"/>
</g>
</svg>
